<svg xmlns="http://www.w3.org/2000/svg" viewBox="0 0 1200 900" width="1200" height="900" preserveAspectRatio="xMidYMid slice" role="img" ><defs><linearGradient id="sky" x1="0" y1="0" x2="0" y2="1"><stop offset="0" stop-color="#F3C98B"/><stop offset=".5" stop-color="#F0A96B"/><stop offset="1" stop-color="#C97F58"/></linearGradient><radialGradient id="glow"><stop offset="0" stop-color="#FFE7B0" stop-opacity=".95"/><stop offset="1" stop-color="#FFE7B0" stop-opacity="0"/></radialGradient></defs><rect width="1200" height="900" fill="url(#sky)"/><circle cx="744" cy="414" r="420" fill="url(#glow)"/><circle cx="744" cy="414" r="74" fill="#FFF0C4"/><path d="M 0.0 453.0 C 75.0 453.0 75.0 449.7 150.0 449.7 C 225.0 449.7 225.0 454.7 300.0 454.7 C 375.0 454.7 375.0 442.5 450.0 442.5 C 525.0 442.5 525.0 451.3 600.0 451.3 C 675.0 451.3 675.0 447.8 750.0 447.8 C 825.0 447.8 825.0 451.5 900.0 451.5 C 975.0 451.5 975.0 443.5 1050.0 443.5 C 1125.0 443.5 1125.0 444.0 1200.0 444.0 L 1200.0 900.0 L 0 900.0 Z" fill="#B4784F" opacity="1"/><path d="M 0.0 520.0 C 75.0 520.0 75.0 522.1 150.0 522.1 C 225.0 522.1 225.0 529.9 300.0 529.9 C 375.0 529.9 375.0 518.2 450.0 518.2 C 525.0 518.2 525.0 514.5 600.0 514.5 C 675.0 514.5 675.0 508.8 750.0 508.8 C 825.0 508.8 825.0 508.5 900.0 508.5 C 975.0 508.5 975.0 506.0 1050.0 506.0 C 1125.0 506.0 1125.0 508.2 1200.0 508.2 L 1200.0 900.0 L 0 900.0 Z" fill="#95603F" opacity="1"/><g><rect x="484.2" y="524.1" width="4.8" height="17.6" fill="#33291c" rx="2.4"/><path d="M 486.6 499.5 L 508.6 529.4 L 464.5 529.4 Z" fill="#6b4630"/><path d="M 486.6 463.3 L 501.8 493.3 L 471.4 493.3 Z" fill="#7c5a47"/><path d="M 486.6 427.2 L 495.0 457.1 L 478.2 457.1 Z" fill="#8c6f5e"/></g><g><rect x="197.2" y="527.7" width="3.8" height="13.6" fill="#33291c" rx="1.9"/><path d="M 199.1 508.6 L 216.1 531.8 L 182.0 531.8 Z" fill="#6b4630"/><path d="M 199.1 480.7 L 210.8 503.9 L 187.3 503.9 Z" fill="#7c5a47"/><path d="M 199.1 452.7 L 205.5 475.9 L 192.6 475.9 Z" fill="#8c6f5e"/></g><g><rect x="256.1" y="523.8" width="4.9" height="18.0" fill="#33291c" rx="2.5"/><path d="M 258.6 498.7 L 281.1 529.2 L 236.2 529.2 Z" fill="#6b4630"/><path d="M 258.6 461.9 L 274.1 492.4 L 243.1 492.4 Z" fill="#7c5a47"/><path d="M 258.6 425.0 L 267.1 455.6 L 250.1 455.6 Z" fill="#8c6f5e"/></g><g><rect x="171.9" y="524.5" width="4.8" height="17.3" fill="#33291c" rx="2.4"/><path d="M 174.3 500.3 L 195.9 529.6 L 152.7 529.6 Z" fill="#6b4630"/><path d="M 174.3 476.7 L 191.4 506.0 L 157.2 506.0 Z" fill="#76543f"/><path d="M 174.3 453.1 L 187.0 482.4 L 161.6 482.4 Z" fill="#81614f"/><path d="M 174.3 429.5 L 182.5 458.8 L 166.1 458.8 Z" fill="#8c6f5e"/></g><g><rect x="837.8" y="526.0" width="4.3" height="15.6" fill="#33291c" rx="2.1"/><path d="M 840.0 504.2 L 859.4 530.7 L 820.5 530.7 Z" fill="#6b4630"/><path d="M 840.0 482.9 L 855.4 509.4 L 824.5 509.4 Z" fill="#76543f"/><path d="M 840.0 461.6 L 851.4 488.1 L 828.5 488.1 Z" fill="#81614f"/><path d="M 840.0 440.4 L 847.3 466.8 L 832.6 466.8 Z" fill="#8c6f5e"/></g><g><rect x="927.3" y="522.7" width="5.3" height="19.2" fill="#33291c" rx="2.6"/><path d="M 930.0 495.7 L 954.0 528.5 L 905.9 528.5 Z" fill="#6b4630"/><path d="M 930.0 469.4 L 949.0 502.2 L 910.9 502.2 Z" fill="#76543f"/><path d="M 930.0 443.1 L 944.1 475.9 L 915.8 475.9 Z" fill="#81614f"/><path d="M 930.0 416.8 L 939.1 449.6 L 920.8 449.6 Z" fill="#8c6f5e"/></g><g><rect x="68.3" y="520.7" width="5.9" height="21.4" fill="#33291c" rx="2.9"/><path d="M 71.2 490.8 L 98.0 527.2 L 44.5 527.2 Z" fill="#6b4630"/><path d="M 71.2 468.8 L 93.8 505.2 L 48.6 505.2 Z" fill="#73503c"/><path d="M 71.2 446.9 L 89.7 483.3 L 52.7 483.3 Z" fill="#7c5a47"/><path d="M 71.2 425.0 L 85.5 461.3 L 56.9 461.3 Z" fill="#846552"/><path d="M 71.2 403.0 L 81.4 439.4 L 61.0 439.4 Z" fill="#8c6f5e"/></g><g><rect x="174.8" y="524.5" width="4.7" height="17.2" fill="#33291c" rx="2.4"/><path d="M 177.2 500.4 L 198.8 529.7 L 155.7 529.7 Z" fill="#6b4630"/><path d="M 177.2 482.7 L 195.4 512.0 L 159.0 512.0 Z" fill="#73503c"/><path d="M 177.2 465.0 L 192.1 494.3 L 162.4 494.3 Z" fill="#7c5a47"/><path d="M 177.2 447.3 L 188.7 476.6 L 165.7 476.6 Z" fill="#846552"/><path d="M 177.2 429.7 L 185.4 459.0 L 169.0 459.0 Z" fill="#8c6f5e"/></g><g><rect x="94.2" y="519.4" width="6.3" height="22.9" fill="#33291c" rx="3.1"/><path d="M 97.3 487.4 L 125.9 526.3 L 68.7 526.3 Z" fill="#6b4630"/><path d="M 97.3 440.5 L 117.1 479.4 L 77.6 479.4 Z" fill="#7c5a47"/><path d="M 97.3 393.6 L 108.2 432.5 L 86.5 432.5 Z" fill="#8c6f5e"/></g><g><rect x="1146.6" y="521.0" width="5.8" height="21.2" fill="#33291c" rx="2.9"/><path d="M 1149.5 491.3 L 1175.9 527.3 L 1123.0 527.3 Z" fill="#6b4630"/><path d="M 1149.5 462.4 L 1170.4 498.4 L 1128.5 498.4 Z" fill="#76543f"/><path d="M 1149.5 433.5 L 1165.0 469.5 L 1134.0 469.5 Z" fill="#81614f"/><path d="M 1149.5 404.6 L 1159.5 440.6 L 1139.4 440.6 Z" fill="#8c6f5e"/></g><g><rect x="21.3" y="525.9" width="4.3" height="15.7" fill="#33291c" rx="2.2"/><path d="M 23.4 504.0 L 43.0 530.6 L 3.8 530.6 Z" fill="#6b4630"/><path d="M 23.4 482.6 L 38.9 509.2 L 7.9 509.2 Z" fill="#76543f"/><path d="M 23.4 461.2 L 34.9 487.8 L 11.9 487.8 Z" fill="#81614f"/><path d="M 23.4 439.8 L 30.8 466.4 L 16.0 466.4 Z" fill="#8c6f5e"/></g><g><rect x="568.6" y="528.1" width="3.6" height="13.2" fill="#33291c" rx="1.8"/><path d="M 570.4 509.6 L 586.9 532.1 L 553.9 532.1 Z" fill="#6b4630"/><path d="M 570.4 482.6 L 581.8 505.0 L 559.0 505.0 Z" fill="#7c5a47"/><path d="M 570.4 455.5 L 576.6 478.0 L 564.1 478.0 Z" fill="#8c6f5e"/></g><g><rect x="298.4" y="527.5" width="3.8" height="13.9" fill="#33291c" rx="1.9"/><path d="M 300.4 508.0 L 317.8 531.6 L 282.9 531.6 Z" fill="#6b4630"/><path d="M 300.4 479.4 L 312.4 503.1 L 288.3 503.1 Z" fill="#7c5a47"/><path d="M 300.4 450.9 L 307.0 474.6 L 293.7 474.6 Z" fill="#8c6f5e"/></g><g><rect x="30.7" y="519.4" width="6.3" height="22.9" fill="#33291c" rx="3.1"/><path d="M 33.9 487.3 L 62.5 526.3 L 5.2 526.3 Z" fill="#6b4630"/><path d="M 33.9 463.8 L 58.1 502.8 L 9.7 502.8 Z" fill="#73503c"/><path d="M 33.9 440.4 L 53.6 479.3 L 14.1 479.3 Z" fill="#7c5a47"/><path d="M 33.9 416.9 L 49.2 455.8 L 18.6 455.8 Z" fill="#846552"/><path d="M 33.9 393.4 L 44.8 432.4 L 23.0 432.4 Z" fill="#8c6f5e"/></g><g><rect x="519.5" y="529.9" width="3.1" height="11.3" fill="#33291c" rx="1.6"/><path d="M 521.1 514.1 L 535.2 533.2 L 507.0 533.2 Z" fill="#6b4630"/><path d="M 521.1 502.5 L 533.0 521.7 L 509.2 521.7 Z" fill="#73503c"/><path d="M 521.1 490.9 L 530.8 510.1 L 511.4 510.1 Z" fill="#7c5a47"/><path d="M 521.1 479.4 L 528.6 498.6 L 513.6 498.6 Z" fill="#846552"/><path d="M 521.1 467.8 L 526.4 487.0 L 515.7 487.0 Z" fill="#8c6f5e"/></g><g><rect x="838.5" y="520.7" width="5.9" height="21.4" fill="#33291c" rx="2.9"/><path d="M 841.4 490.7 L 868.2 527.1 L 814.6 527.1 Z" fill="#6b4630"/><path d="M 841.4 461.4 L 862.7 497.8 L 820.2 497.8 Z" fill="#76543f"/><path d="M 841.4 432.1 L 857.2 468.5 L 825.7 468.5 Z" fill="#81614f"/><path d="M 841.4 402.8 L 851.6 439.2 L 831.3 439.2 Z" fill="#8c6f5e"/></g><g><rect x="435.9" y="524.9" width="4.6" height="16.7" fill="#33291c" rx="2.3"/><path d="M 438.2 501.5 L 459.1 530.0 L 417.3 530.0 Z" fill="#6b4630"/><path d="M 438.2 478.6 L 454.8 507.1 L 421.6 507.1 Z" fill="#76543f"/><path d="M 438.2 455.8 L 450.5 484.2 L 425.9 484.2 Z" fill="#81614f"/><path d="M 438.2 432.9 L 446.1 461.4 L 430.2 461.4 Z" fill="#8c6f5e"/></g><g><rect x="709.1" y="524.2" width="4.8" height="17.6" fill="#33291c" rx="2.4"/><path d="M 711.6 499.5 L 733.6 529.4 L 689.6 529.4 Z" fill="#6b4630"/><path d="M 711.6 463.4 L 726.8 493.3 L 696.4 493.3 Z" fill="#7c5a47"/><path d="M 711.6 427.3 L 719.9 457.2 L 703.2 457.2 Z" fill="#8c6f5e"/></g><g><rect x="576.3" y="519.0" width="6.4" height="23.3" fill="#33291c" rx="3.2"/><path d="M 579.5 486.4 L 608.6 526.0 L 550.3 526.0 Z" fill="#6b4630"/><path d="M 579.5 462.5 L 604.1 502.1 L 554.8 502.1 Z" fill="#73503c"/><path d="M 579.5 438.6 L 599.6 478.2 L 559.4 478.2 Z" fill="#7c5a47"/><path d="M 579.5 414.7 L 595.1 454.3 L 563.9 454.3 Z" fill="#846552"/><path d="M 579.5 390.8 L 590.6 430.4 L 568.4 430.4 Z" fill="#8c6f5e"/></g><g><rect x="825.8" y="526.4" width="4.2" height="15.2" fill="#33291c" rx="2.1"/><path d="M 827.9 505.1 L 846.8 530.9 L 808.9 530.9 Z" fill="#6b4630"/><path d="M 827.9 489.6 L 843.9 515.4 L 811.8 515.4 Z" fill="#73503c"/><path d="M 827.9 474.1 L 840.9 499.8 L 814.8 499.8 Z" fill="#7c5a47"/><path d="M 827.9 458.5 L 838.0 484.3 L 817.7 484.3 Z" fill="#846552"/><path d="M 827.9 443.0 L 835.1 468.8 L 820.7 468.8 Z" fill="#8c6f5e"/></g><g><rect x="32.3" y="528.5" width="3.5" height="12.8" fill="#33291c" rx="1.8"/><path d="M 34.1 510.6 L 50.1 532.3 L 18.1 532.3 Z" fill="#6b4630"/><path d="M 34.1 484.4 L 45.1 506.1 L 23.1 506.1 Z" fill="#7c5a47"/><path d="M 34.1 458.2 L 40.2 479.9 L 28.0 479.9 Z" fill="#8c6f5e"/></g><g><rect x="1072.6" y="523.7" width="5.0" height="18.1" fill="#33291c" rx="2.5"/><path d="M 1075.1 498.4 L 1097.7 529.1 L 1052.5 529.1 Z" fill="#6b4630"/><path d="M 1075.1 479.8 L 1094.2 510.6 L 1056.0 510.6 Z" fill="#73503c"/><path d="M 1075.1 461.2 L 1090.7 492.0 L 1059.5 492.0 Z" fill="#7c5a47"/><path d="M 1075.1 442.7 L 1087.2 473.5 L 1063.0 473.5 Z" fill="#846552"/><path d="M 1075.1 424.1 L 1083.7 454.9 L 1066.5 454.9 Z" fill="#8c6f5e"/></g><g><rect x="779.6" y="524.1" width="4.9" height="17.6" fill="#33291c" rx="2.4"/><path d="M 782.0 499.4 L 804.1 529.4 L 760.0 529.4 Z" fill="#6b4630"/><path d="M 782.0 475.3 L 799.5 505.3 L 764.5 505.3 Z" fill="#76543f"/><path d="M 782.0 451.2 L 795.0 481.2 L 769.1 481.2 Z" fill="#81614f"/><path d="M 782.0 427.1 L 790.4 457.1 L 773.6 457.1 Z" fill="#8c6f5e"/></g><g><rect x="676.5" y="525.7" width="4.4" height="15.9" fill="#33291c" rx="2.2"/><path d="M 678.7 503.4 L 698.6 530.5 L 658.8 530.5 Z" fill="#6b4630"/><path d="M 678.7 481.7 L 694.5 508.7 L 662.9 508.7 Z" fill="#76543f"/><path d="M 678.7 460.0 L 690.4 487.0 L 667.1 487.0 Z" fill="#81614f"/><path d="M 678.7 438.3 L 686.3 465.3 L 671.2 465.3 Z" fill="#8c6f5e"/></g><g><rect x="398.8" y="520.8" width="5.9" height="21.4" fill="#33291c" rx="2.9"/><path d="M 401.8 490.9 L 428.5 527.2 L 375.1 527.2 Z" fill="#6b4630"/><path d="M 401.8 469.0 L 424.3 505.3 L 379.2 505.3 Z" fill="#73503c"/><path d="M 401.8 447.1 L 420.2 483.4 L 383.3 483.4 Z" fill="#7c5a47"/><path d="M 401.8 425.2 L 416.0 461.5 L 387.5 461.5 Z" fill="#846552"/><path d="M 401.8 403.3 L 411.9 439.6 L 391.6 439.6 Z" fill="#8c6f5e"/></g><g><rect x="865.5" y="519.0" width="6.4" height="23.4" fill="#33291c" rx="3.2"/><path d="M 868.7 486.2 L 897.9 526.0 L 839.5 526.0 Z" fill="#6b4630"/><path d="M 868.7 438.3 L 888.9 478.0 L 848.5 478.0 Z" fill="#7c5a47"/><path d="M 868.7 390.3 L 879.8 430.1 L 857.6 430.1 Z" fill="#8c6f5e"/></g><path d="M 0.0 614.3 C 85.7 614.3 85.7 617.3 171.4 617.3 C 257.1 617.3 257.1 619.2 342.9 619.2 C 428.6 619.2 428.6 622.5 514.3 622.5 C 600.0 622.5 600.0 619.7 685.7 619.7 C 771.4 619.7 771.4 622.3 857.1 622.3 C 942.9 622.3 942.9 606.2 1028.6 606.2 C 1114.3 606.2 1114.3 609.6 1200.0 609.6 L 1200.0 900.0 L 0 900.0 Z" fill="#4A3222"/><g fill="#2B1D14"><circle cx="312.0" cy="650.1" r="15.8"/><path d="M 291.0 732.0 q 4.2 -52.5 18.9 -65.1 l 12.6 2.1 q 12.6 16.8 10.5 63.0 Z"/><path d="M 318.3 677.4 q 27.3 18.9 23.1 54.6" stroke="#2B1D14" stroke-width="9.5" fill="none" stroke-linecap="round"/><path d="M 301.5 729.9 l -6.3 44.1 M 320.4 729.9 l 8.4 44.1" stroke="#2B1D14" stroke-width="11.6" stroke-linecap="round"/></g><path d="M 343.5 774.0 l 0 -31.5" stroke="#3E5F2E" stroke-width="3.6" stroke-linecap="round"/><ellipse cx="343.5" cy="738.3" rx="13.7" ry="9.5" fill="#4C7A34"/><g fill="#2B1D14"><circle cx="624.0" cy="616.6" r="12.0"/><path d="M 608.0 679.0 q 3.2 -40.0 14.4 -49.6 l 9.6 1.6 q 9.6 12.8 8.0 48.0 Z"/><path d="M 628.8 637.4 q -20.8 14.4 -17.6 41.6" stroke="#2B1D14" stroke-width="7.2" fill="none" stroke-linecap="round"/><path d="M 616.0 677.4 l -4.8 33.6 M 630.4 677.4 l 6.4 33.6" stroke="#2B1D14" stroke-width="8.8" stroke-linecap="round"/></g><path d="M 600.0 711.0 l 0 -24.0" stroke="#3E5F2E" stroke-width="2.7" stroke-linecap="round"/><ellipse cx="600.0" cy="683.8" rx="10.4" ry="7.2" fill="#4C7A34"/><g fill="#2B1D14"><circle cx="936.0" cy="686.4" r="18.0"/><path d="M 912.0 780.0 q 4.8 -60.0 21.6 -74.4 l 14.4 2.4 q 14.4 19.2 12.0 72.0 Z"/><path d="M 943.2 717.6 q -31.2 21.6 -26.4 62.4" stroke="#2B1D14" stroke-width="10.8" fill="none" stroke-linecap="round"/><path d="M 924.0 777.6 l -7.2 50.4 M 945.6 777.6 l 9.6 50.4" stroke="#2B1D14" stroke-width="13.2" stroke-linecap="round"/></g><path d="M 900.0 828.0 l 0 -36.0" stroke="#3E5F2E" stroke-width="4.1" stroke-linecap="round"/><ellipse cx="900.0" cy="787.2" rx="15.6" ry="10.8" fill="#4C7A34"/><circle cx="811" cy="526" r="1.3" fill="#FFE3AE" opacity="0.57"/><circle cx="882" cy="273" r="2.6" fill="#FFE3AE" opacity="0.56"/><circle cx="76" cy="310" r="2.0" fill="#FFE3AE" opacity="0.23"/><circle cx="628" cy="636" r="3.1" fill="#FFE3AE" opacity="0.59"/><circle cx="73" cy="531" r="3.3" fill="#FFE3AE" opacity="0.59"/><circle cx="1196" cy="676" r="2.9" fill="#FFE3AE" opacity="0.30"/><circle cx="957" cy="305" r="2.2" fill="#FFE3AE" opacity="0.33"/><circle cx="363" cy="747" r="2.1" fill="#FFE3AE" opacity="0.29"/><circle cx="158" cy="341" r="1.3" fill="#FFE3AE" opacity="0.57"/><circle cx="475" cy="456" r="2.1" fill="#FFE3AE" opacity="0.27"/><circle cx="691" cy="342" r="2.8" fill="#FFE3AE" opacity="0.38"/><circle cx="434" cy="289" r="1.6" fill="#FFE3AE" opacity="0.37"/><circle cx="605" cy="737" r="2.7" fill="#FFE3AE" opacity="0.60"/><circle cx="543" cy="341" r="3.2" fill="#FFE3AE" opacity="0.31"/><circle cx="135" cy="792" r="3.2" fill="#FFE3AE" opacity="0.22"/><circle cx="6" cy="764" r="2.0" fill="#FFE3AE" opacity="0.44"/><circle cx="828" cy="487" r="2.4" fill="#FFE3AE" opacity="0.43"/><circle cx="1143" cy="544" r="1.5" fill="#FFE3AE" opacity="0.22"/><circle cx="177" cy="809" r="1.8" fill="#FFE3AE" opacity="0.16"/><circle cx="837" cy="598" r="1.4" fill="#FFE3AE" opacity="0.39"/><circle cx="93" cy="321" r="2.3" fill="#FFE3AE" opacity="0.17"/><circle cx="1057" cy="488" r="1.7" fill="#FFE3AE" opacity="0.52"/><circle cx="194" cy="604" r="1.2" fill="#FFE3AE" opacity="0.39"/><circle cx="1125" cy="798" r="2.5" fill="#FFE3AE" opacity="0.28"/><circle cx="41" cy="381" r="1.5" fill="#FFE3AE" opacity="0.22"/><circle cx="208" cy="332" r="3.1" fill="#FFE3AE" opacity="0.50"/><circle cx="1075" cy="647" r="1.7" fill="#FFE3AE" opacity="0.32"/><circle cx="450" cy="586" r="3.3" fill="#FFE3AE" opacity="0.28"/><circle cx="928" cy="685" r="1.4" fill="#FFE3AE" opacity="0.58"/><circle cx="576" cy="424" r="3.2" fill="#FFE3AE" opacity="0.37"/><circle cx="339" cy="430" r="2.4" fill="#FFE3AE" opacity="0.35"/><circle cx="1193" cy="529" r="1.3" fill="#FFE3AE" opacity="0.46"/><circle cx="701" cy="406" r="1.5" fill="#FFE3AE" opacity="0.55"/><circle cx="930" cy="456" r="1.9" fill="#FFE3AE" opacity="0.34"/><circle cx="367" cy="809" r="2.3" fill="#FFE3AE" opacity="0.47"/><circle cx="117" cy="394" r="2.3" fill="#FFE3AE" opacity="0.16"/><circle cx="928" cy="384" r="2.6" fill="#FFE3AE" opacity="0.45"/><circle cx="764" cy="770" r="2.1" fill="#FFE3AE" opacity="0.58"/><circle cx="687" cy="296" r="1.4" fill="#FFE3AE" opacity="0.25"/><circle cx="678" cy="721" r="1.0" fill="#FFE3AE" opacity="0.31"/><circle cx="72" cy="632" r="1.1" fill="#FFE3AE" opacity="0.46"/><circle cx="372" cy="335" r="2.1" fill="#FFE3AE" opacity="0.18"/><circle cx="277" cy="284" r="1.2" fill="#FFE3AE" opacity="0.51"/><circle cx="66" cy="568" r="2.7" fill="#FFE3AE" opacity="0.30"/><circle cx="785" cy="330" r="2.3" fill="#FFE3AE" opacity="0.35"/><circle cx="1039" cy="650" r="2.2" fill="#FFE3AE" opacity="0.17"/><circle cx="469" cy="717" r="2.3" fill="#FFE3AE" opacity="0.19"/><circle cx="1067" cy="596" r="1.5" fill="#FFE3AE" opacity="0.42"/><circle cx="662" cy="572" r="1.1" fill="#FFE3AE" opacity="0.37"/><circle cx="993" cy="551" r="3.4" fill="#FFE3AE" opacity="0.25"/><circle cx="92" cy="475" r="2.6" fill="#FFE3AE" opacity="0.50"/><circle cx="160" cy="322" r="3.1" fill="#FFE3AE" opacity="0.28"/><circle cx="968" cy="772" r="1.8" fill="#FFE3AE" opacity="0.43"/><circle cx="458" cy="566" r="1.8" fill="#FFE3AE" opacity="0.34"/><circle cx="841" cy="512" r="1.3" fill="#FFE3AE" opacity="0.33"/><circle cx="236" cy="679" r="1.8" fill="#FFE3AE" opacity="0.30"/><circle cx="1018" cy="744" r="1.9" fill="#FFE3AE" opacity="0.36"/><circle cx="664" cy="411" r="1.9" fill="#FFE3AE" opacity="0.53"/><circle cx="579" cy="534" r="2.4" fill="#FFE3AE" opacity="0.20"/><circle cx="334" cy="401" r="2.8" fill="#FFE3AE" opacity="0.41"/></svg>